<svg width="115" height="61" viewBox="0 0 115 61" fill="none" xmlns="http://www.w3.org/2000/svg">
<path d="M57.5 61C48.3993 61 40.2638 60.5481 33.0935 59.6444C25.9233 58.7407 19.8561 57.4699 14.8921 55.8319C10.0659 54.194 6.34293 52.2736 3.72302 50.0708C1.24101 47.8681 0 45.4111 0 42.7C0 39.4241 1.93046 36.6 5.79137 34.2278C9.79017 31.7991 14.961 29.9352 21.304 28.6361C16.202 27.337 12.2032 25.6708 9.30755 23.6375C6.54976 21.6042 5.17086 19.2319 5.17086 16.5208C5.17086 13.2449 7.17026 10.3926 11.1691 7.96389C15.3058 5.4787 21.235 3.53009 28.9568 2.11805C36.8165 0.706018 46.3309 0 57.5 0C68.6691 0 78.1145 0.706018 85.8363 2.11805C93.5582 3.47361 99.4185 5.39398 103.417 7.87917C107.416 10.3079 109.415 13.1602 109.415 16.4361C109.415 19.1472 108.037 21.5194 105.279 23.5528C102.521 25.5861 98.6601 27.2806 93.696 28.6361C100.177 29.8787 105.348 31.7426 109.209 34.2278C113.07 36.6565 115 39.5088 115 42.7847C115 46.3431 112.725 49.506 108.174 52.2736C103.762 54.9847 97.2122 57.131 88.5252 58.7125C79.976 60.2375 69.6343 61 57.5 61ZM57.5 52.1889C62.8777 52.1889 67.7038 51.8218 71.9784 51.0875C76.3909 50.2968 79.8381 49.1954 82.3201 47.7833C84.9401 46.3713 86.25 44.7051 86.25 42.7847C86.25 40.8079 84.9401 39.1417 82.3201 37.7861C79.8381 36.3741 76.3909 35.3009 71.9784 34.5667C67.7038 33.7759 62.8777 33.3806 57.5 33.3806C52.1223 33.3806 47.2272 33.7759 42.8147 34.5667C38.5402 35.3009 35.0929 36.3741 32.473 37.7861C29.991 39.1417 28.75 40.8079 28.75 42.7847C28.75 44.7051 29.991 46.3713 32.473 47.7833C35.0929 49.1954 38.5402 50.2968 42.8147 51.0875C47.2272 51.8218 52.1223 52.1889 57.5 52.1889ZM57.5 24.9931C62.0504 24.9366 66.1871 24.5694 69.9101 23.8917C73.771 23.2139 76.8046 22.3102 79.0108 21.1806C81.3549 19.9944 82.527 18.5824 82.527 16.9444C82.527 15.3065 81.4239 13.8944 79.2176 12.7083C77.1493 11.4657 74.1847 10.5056 70.3237 9.82778C66.6007 9.15 62.3261 8.81111 57.5 8.81111C52.6739 8.81111 48.3303 9.15 44.4694 9.82778C40.7464 10.5056 37.7818 11.4657 35.5755 12.7083C33.5072 13.8944 32.473 15.3065 32.473 16.9444C32.473 18.5824 33.5072 19.9944 35.5755 21.1806C37.7818 22.3667 40.7464 23.2986 44.4694 23.9764C48.3303 24.6542 52.6739 24.9931 57.5 24.9931Z" fill="white"/>
</svg>
