<svg xmlns="http://www.w3.org/2000/svg" version="1.1" xmlns:xlink="http://www.w3.org/1999/xlink" xmlns:svgjs="http://svgjs.dev/svgjs" width="1440" height="560" preserveAspectRatio="none" viewBox="0 0 1440 560"><g mask="url(&quot;#SvgjsMask1722&quot;)" fill="none"><rect width="1440" height="560" x="0" y="0" fill="rgba(233, 241, 250, 1)"></rect><g mask="url(&quot;#SvgjsMask1723&quot;)"><path d="M710 430L730 410M730 530L730 510L730 490L730 470L730 450M710 390L730 370L730 350M730 590L730 570L730 550L730 530L710 510L710 490L710 470L710 450L710 430L710 410L710 390L710 370L710 350" stroke="rgba(201, 201, 201, 1)" stroke-width="3.33"></path><path d="M705 350 a5 5 0 1 0 10 0 a5 5 0 1 0 -10 0zM725 410 a5 5 0 1 0 10 0 a5 5 0 1 0 -10 0zM725 450 a5 5 0 1 0 10 0 a5 5 0 1 0 -10 0zM725 350 a5 5 0 1 0 10 0 a5 5 0 1 0 -10 0z" fill="rgba(201, 201, 201, 1)"></path><path d="M710 590L710 570L710 550L710 530L690 510L690 490L690 470L690 450L690 430L690 410L690 390" stroke="rgba(201, 201, 201, 1)" stroke-width="3.33"></path><path d="M685 390 a5 5 0 1 0 10 0 a5 5 0 1 0 -10 0z" fill="rgba(201, 201, 201, 1)"></path><path d="M750 450L770 430L770 410L770 390L750 370M750 470L770 450M750 490L770 470M750 590L750 570L750 550L750 530L750 510L750 490L750 470L750 450L750 430L750 410L750 390" stroke="rgba(0, 171, 228, 1)" stroke-width="3.33"></path><path d="M745 390 a5 5 0 1 0 10 0 a5 5 0 1 0 -10 0zM745 370 a5 5 0 1 0 10 0 a5 5 0 1 0 -10 0zM765 450 a5 5 0 1 0 10 0 a5 5 0 1 0 -10 0zM765 470 a5 5 0 1 0 10 0 a5 5 0 1 0 -10 0z" fill="rgba(0, 171, 228, 1)"></path><path d="M670 410L650 390L650 370L650 350L650 330M690 590L690 570L690 550L690 530L670 510L670 490L670 470L670 450L670 430L670 410L670 390" stroke="rgba(255, 255, 255, 1)" stroke-width="3.33"></path><path d="M665 390 a5 5 0 1 0 10 0 a5 5 0 1 0 -10 0zM645 330 a5 5 0 1 0 10 0 a5 5 0 1 0 -10 0z" fill="rgba(255, 255, 255, 1)"></path><path d="M810 310L790 290L790 270M790 430L810 410L810 390M790 490L810 470L810 450M770 530L790 510M770 590L770 570L770 550L770 530L770 510L790 490L790 470L790 450L790 430L790 410L790 390L790 370L790 350L790 330L810 310L810 290" stroke="rgba(255, 255, 255, 1)" stroke-width="3.33"></path><path d="M805 290 a5 5 0 1 0 10 0 a5 5 0 1 0 -10 0zM785 270 a5 5 0 1 0 10 0 a5 5 0 1 0 -10 0zM805 390 a5 5 0 1 0 10 0 a5 5 0 1 0 -10 0zM805 450 a5 5 0 1 0 10 0 a5 5 0 1 0 -10 0zM785 510 a5 5 0 1 0 10 0 a5 5 0 1 0 -10 0z" fill="rgba(255, 255, 255, 1)"></path><path d="M670 590L670 570L670 550L670 530L650 510L650 490L650 470L650 450L650 430" stroke="rgba(201, 201, 201, 1)" stroke-width="3.33"></path><path d="M645 430 a5 5 0 1 0 10 0 a5 5 0 1 0 -10 0z" fill="rgba(201, 201, 201, 1)"></path><path d="M650 590L650 570L650 550L650 530L630 510L630 490L630 470L630 450L630 430L630 410" stroke="rgba(255, 255, 255, 1)" stroke-width="3.33"></path><path d="M625 410 a5 5 0 1 0 10 0 a5 5 0 1 0 -10 0z" fill="rgba(255, 255, 255, 1)"></path><path d="M810 590L810 570" stroke="rgba(201, 201, 201, 1)" stroke-width="3.33"></path><path d="M805 570 a5 5 0 1 0 10 0 a5 5 0 1 0 -10 0z" fill="rgba(201, 201, 201, 1)"></path><path d="M630 590L630 570L630 550" stroke="rgba(255, 255, 255, 1)" stroke-width="3.33"></path><path d="M625 550 a5 5 0 1 0 10 0 a5 5 0 1 0 -10 0z" fill="rgba(255, 255, 255, 1)"></path><path d="M610 330L630 310L630 290L630 270L650 250M610 370L590 350L590 330L590 310M610 490L590 470L590 450L590 430M610 350L630 330M610 590L610 570L610 550L610 530L610 510L610 490L610 470L610 450L610 430L610 410L610 390L610 370L610 350L610 330L610 310L610 290" stroke="rgba(201, 201, 201, 1)" stroke-width="3.33"></path><path d="M605 290 a5 5 0 1 0 10 0 a5 5 0 1 0 -10 0zM645 250 a5 5 0 1 0 10 0 a5 5 0 1 0 -10 0zM585 310 a5 5 0 1 0 10 0 a5 5 0 1 0 -10 0zM585 430 a5 5 0 1 0 10 0 a5 5 0 1 0 -10 0zM625 330 a5 5 0 1 0 10 0 a5 5 0 1 0 -10 0z" fill="rgba(201, 201, 201, 1)"></path><path d="M850 410L830 390L810 370M850 490L830 470L830 450M850 430L870 410L870 390M850 590L850 570L850 550L850 530L850 510L850 490L850 470L850 450L850 430L850 410L850 390L850 370L850 350L850 330L870 310" stroke="rgba(255, 255, 255, 1)" stroke-width="3.33"></path><path d="M865 310 a5 5 0 1 0 10 0 a5 5 0 1 0 -10 0zM805 370 a5 5 0 1 0 10 0 a5 5 0 1 0 -10 0zM825 450 a5 5 0 1 0 10 0 a5 5 0 1 0 -10 0zM865 390 a5 5 0 1 0 10 0 a5 5 0 1 0 -10 0z" fill="rgba(255, 255, 255, 1)"></path><path d="M590 590L590 570L590 550L590 530L590 510" stroke="rgba(255, 255, 255, 1)" stroke-width="3.33"></path><path d="M585 510 a5 5 0 1 0 10 0 a5 5 0 1 0 -10 0z" fill="rgba(255, 255, 255, 1)"></path><path d="M870 590L870 570" stroke="rgba(0, 171, 228, 1)" stroke-width="3.33"></path><path d="M865 570 a5 5 0 1 0 10 0 a5 5 0 1 0 -10 0z" fill="rgba(0, 171, 228, 1)"></path><path d="M570 590L570 570L570 550L570 530L570 510L570 490" stroke="rgba(0, 171, 228, 1)" stroke-width="3.33"></path><path d="M565 490 a5 5 0 1 0 10 0 a5 5 0 1 0 -10 0z" fill="rgba(0, 171, 228, 1)"></path><path d="M890 530L870 510L870 490L890 470L890 450M890 550L910 530L910 510M890 590L890 570L890 550L890 530L890 510" stroke="rgba(0, 171, 228, 1)" stroke-width="3.33"></path><path d="M885 510 a5 5 0 1 0 10 0 a5 5 0 1 0 -10 0zM885 450 a5 5 0 1 0 10 0 a5 5 0 1 0 -10 0zM905 510 a5 5 0 1 0 10 0 a5 5 0 1 0 -10 0z" fill="rgba(0, 171, 228, 1)"></path><path d="M530 310L510 290L510 270L510 250M550 450L570 430L570 410L570 390M530 270L550 250M530 290L550 270L570 250M550 590L550 570L550 550L550 530L550 510L550 490L550 470L550 450L550 430L550 410L530 390L530 370L530 350L530 330L530 310L530 290L530 270L530 250" stroke="rgba(255, 255, 255, 1)" stroke-width="3.33"></path><path d="M525 250 a5 5 0 1 0 10 0 a5 5 0 1 0 -10 0zM505 250 a5 5 0 1 0 10 0 a5 5 0 1 0 -10 0zM565 390 a5 5 0 1 0 10 0 a5 5 0 1 0 -10 0zM545 250 a5 5 0 1 0 10 0 a5 5 0 1 0 -10 0zM565 250 a5 5 0 1 0 10 0 a5 5 0 1 0 -10 0z" fill="rgba(255, 255, 255, 1)"></path><path d="M910 590L910 570" stroke="rgba(201, 201, 201, 1)" stroke-width="3.33"></path><path d="M905 570 a5 5 0 1 0 10 0 a5 5 0 1 0 -10 0z" fill="rgba(201, 201, 201, 1)"></path><path d="M530 470L510 450L510 430L510 410M530 490L510 470L490 450L490 430M530 590L530 570L530 550L530 530L530 510L530 490L530 470L530 450" stroke="rgba(0, 171, 228, 1)" stroke-width="3.33"></path><path d="M525 450 a5 5 0 1 0 10 0 a5 5 0 1 0 -10 0zM505 410 a5 5 0 1 0 10 0 a5 5 0 1 0 -10 0zM485 430 a5 5 0 1 0 10 0 a5 5 0 1 0 -10 0z" fill="rgba(0, 171, 228, 1)"></path><path d="M910 470L930 450L930 430L930 410L930 390M930 510L930 490L930 470M930 590L930 570L930 550L930 530L930 510L910 490L910 470L910 450L910 430" stroke="rgba(201, 201, 201, 1)" stroke-width="3.33"></path><path d="M905 430 a5 5 0 1 0 10 0 a5 5 0 1 0 -10 0zM925 390 a5 5 0 1 0 10 0 a5 5 0 1 0 -10 0zM925 470 a5 5 0 1 0 10 0 a5 5 0 1 0 -10 0z" fill="rgba(201, 201, 201, 1)"></path><path d="M510 530L490 510L490 490L490 470M510 550L490 530M510 570L490 550M510 590L510 570L510 550L510 530L510 510" stroke="rgba(255, 255, 255, 1)" stroke-width="3.33"></path><path d="M505 510 a5 5 0 1 0 10 0 a5 5 0 1 0 -10 0zM485 470 a5 5 0 1 0 10 0 a5 5 0 1 0 -10 0zM485 530 a5 5 0 1 0 10 0 a5 5 0 1 0 -10 0zM485 550 a5 5 0 1 0 10 0 a5 5 0 1 0 -10 0z" fill="rgba(255, 255, 255, 1)"></path><path d="M950 430L970 410L970 390M950 590L950 570L950 550L950 530L950 510L950 490L950 470L950 450L950 430L950 410" stroke="rgba(0, 171, 228, 1)" stroke-width="3.33"></path><path d="M945 410 a5 5 0 1 0 10 0 a5 5 0 1 0 -10 0zM965 390 a5 5 0 1 0 10 0 a5 5 0 1 0 -10 0z" fill="rgba(0, 171, 228, 1)"></path><path d="M970 590L970 570L970 550L970 530L970 510L970 490L970 470L970 450" stroke="rgba(0, 171, 228, 1)" stroke-width="3.33"></path><path d="M965 450 a5 5 0 1 0 10 0 a5 5 0 1 0 -10 0z" fill="rgba(0, 171, 228, 1)"></path><path d="M470 370L450 350L450 330L450 310M470 350L490 330L510 310M470 310L470 290L470 270M470 410L450 390L450 370L430 350L430 330M470 590L470 570L470 550L470 530L470 510L470 490L470 470L470 450L470 430L470 410L470 390L470 370L470 350L470 330L470 310L450 290L450 270" stroke="rgba(255, 255, 255, 1)" stroke-width="3.33"></path><path d="M445 270 a5 5 0 1 0 10 0 a5 5 0 1 0 -10 0zM445 310 a5 5 0 1 0 10 0 a5 5 0 1 0 -10 0zM505 310 a5 5 0 1 0 10 0 a5 5 0 1 0 -10 0zM465 270 a5 5 0 1 0 10 0 a5 5 0 1 0 -10 0zM425 330 a5 5 0 1 0 10 0 a5 5 0 1 0 -10 0z" fill="rgba(255, 255, 255, 1)"></path><path d="M990 370L1010 350L1010 330L1010 310L1010 290M990 350L970 330M990 430L1010 410L1010 390L1010 370M990 510L1010 490L1010 470L1010 450L1010 430M990 590L990 570L990 550L990 530L990 510L990 490L990 470L990 450L990 430L990 410L990 390L990 370L990 350L990 330L990 310L990 290" stroke="rgba(255, 255, 255, 1)" stroke-width="3.33"></path><path d="M985 290 a5 5 0 1 0 10 0 a5 5 0 1 0 -10 0zM1005 290 a5 5 0 1 0 10 0 a5 5 0 1 0 -10 0zM965 330 a5 5 0 1 0 10 0 a5 5 0 1 0 -10 0zM1005 370 a5 5 0 1 0 10 0 a5 5 0 1 0 -10 0zM1005 430 a5 5 0 1 0 10 0 a5 5 0 1 0 -10 0z" fill="rgba(255, 255, 255, 1)"></path><path d="M450 590L450 570L450 550L450 530" stroke="rgba(255, 255, 255, 1)" stroke-width="3.33"></path><path d="M445 530 a5 5 0 1 0 10 0 a5 5 0 1 0 -10 0z" fill="rgba(255, 255, 255, 1)"></path><path d="M1010 590L1010 570L1010 550L1010 530" stroke="rgba(0, 171, 228, 1)" stroke-width="3.33"></path><path d="M1005 530 a5 5 0 1 0 10 0 a5 5 0 1 0 -10 0z" fill="rgba(0, 171, 228, 1)"></path><path d="M410 370L410 350L410 330L410 310L410 290M430 510L410 490L410 470L410 450L410 430M390 350L370 330L350 310L350 290L350 270M430 490L450 470L450 450L450 430M430 590L430 570L430 550L430 530L430 510L430 490L430 470L430 450L430 430L430 410L410 390L410 370L390 350L390 330L370 310L370 290L370 270L390 250" stroke="rgba(255, 255, 255, 1)" stroke-width="3.33"></path><path d="M385 250 a5 5 0 1 0 10 0 a5 5 0 1 0 -10 0zM405 290 a5 5 0 1 0 10 0 a5 5 0 1 0 -10 0zM405 430 a5 5 0 1 0 10 0 a5 5 0 1 0 -10 0zM345 270 a5 5 0 1 0 10 0 a5 5 0 1 0 -10 0zM445 430 a5 5 0 1 0 10 0 a5 5 0 1 0 -10 0z" fill="rgba(255, 255, 255, 1)"></path><path d="M1030 590L1030 570L1030 550L1030 530L1030 510L1030 490L1030 470L1030 450L1030 430L1030 410L1030 390L1030 370L1030 350L1030 330L1030 310L1030 290L1030 270" stroke="rgba(255, 255, 255, 1)" stroke-width="3.33"></path><path d="M1025 270 a5 5 0 1 0 10 0 a5 5 0 1 0 -10 0z" fill="rgba(255, 255, 255, 1)"></path><path d="M410 590L410 570L410 550L410 530" stroke="rgba(0, 171, 228, 1)" stroke-width="3.33"></path><path d="M405 530 a5 5 0 1 0 10 0 a5 5 0 1 0 -10 0z" fill="rgba(0, 171, 228, 1)"></path><path d="M1050 330L1070 310L1070 290L1070 270L1070 250M1050 370L1070 350L1070 330L1090 310M1050 590L1050 570L1050 550L1050 530L1050 510L1050 490L1050 470L1050 450L1050 430L1050 410L1050 390L1050 370L1050 350L1050 330L1050 310L1050 290L1050 270" stroke="rgba(255, 255, 255, 1)" stroke-width="3.33"></path><path d="M1045 270 a5 5 0 1 0 10 0 a5 5 0 1 0 -10 0zM1065 250 a5 5 0 1 0 10 0 a5 5 0 1 0 -10 0zM1085 310 a5 5 0 1 0 10 0 a5 5 0 1 0 -10 0z" fill="rgba(255, 255, 255, 1)"></path><path d="M390 550L390 530L390 510L390 490L390 470M370 510L350 490L350 470M370 530L350 510L330 490L330 470M390 590L390 570L390 550L370 530L370 510L370 490" stroke="rgba(255, 255, 255, 1)" stroke-width="3.33"></path><path d="M365 490 a5 5 0 1 0 10 0 a5 5 0 1 0 -10 0zM385 470 a5 5 0 1 0 10 0 a5 5 0 1 0 -10 0zM345 470 a5 5 0 1 0 10 0 a5 5 0 1 0 -10 0zM325 470 a5 5 0 1 0 10 0 a5 5 0 1 0 -10 0z" fill="rgba(255, 255, 255, 1)"></path><path d="M1070 450L1090 430M1070 570L1090 550L1090 530L1090 510L1090 490M1070 410L1090 390L1090 370L1090 350L1090 330M1070 590L1070 570L1070 550L1070 530L1070 510L1070 490L1070 470L1070 450L1070 430L1070 410L1070 390" stroke="rgba(201, 201, 201, 1)" stroke-width="3.33"></path><path d="M1065 390 a5 5 0 1 0 10 0 a5 5 0 1 0 -10 0zM1085 430 a5 5 0 1 0 10 0 a5 5 0 1 0 -10 0zM1085 490 a5 5 0 1 0 10 0 a5 5 0 1 0 -10 0zM1085 330 a5 5 0 1 0 10 0 a5 5 0 1 0 -10 0z" fill="rgba(201, 201, 201, 1)"></path><path d="M370 570L350 550L350 530M370 590L370 570L370 550" stroke="rgba(255, 255, 255, 1)" stroke-width="3.33"></path><path d="M365 550 a5 5 0 1 0 10 0 a5 5 0 1 0 -10 0zM345 530 a5 5 0 1 0 10 0 a5 5 0 1 0 -10 0z" fill="rgba(255, 255, 255, 1)"></path></g></g><defs><mask id="SvgjsMask1722"><rect width="1440" height="560" fill="#ffffff"></rect></mask><mask id="SvgjsMask1723"><rect width="1440" height="560" fill="white"></rect><path d="M707.5 350 a2.5 2.5 0 1 0 5 0 a2.5 2.5 0 1 0 -5 0zM727.5 410 a2.5 2.5 0 1 0 5 0 a2.5 2.5 0 1 0 -5 0zM727.5 450 a2.5 2.5 0 1 0 5 0 a2.5 2.5 0 1 0 -5 0zM727.5 350 a2.5 2.5 0 1 0 5 0 a2.5 2.5 0 1 0 -5 0z" fill="black"></path><path d="M687.5 390 a2.5 2.5 0 1 0 5 0 a2.5 2.5 0 1 0 -5 0z" fill="black"></path><path d="M747.5 390 a2.5 2.5 0 1 0 5 0 a2.5 2.5 0 1 0 -5 0zM747.5 370 a2.5 2.5 0 1 0 5 0 a2.5 2.5 0 1 0 -5 0zM767.5 450 a2.5 2.5 0 1 0 5 0 a2.5 2.5 0 1 0 -5 0zM767.5 470 a2.5 2.5 0 1 0 5 0 a2.5 2.5 0 1 0 -5 0z" fill="black"></path><path d="M667.5 390 a2.5 2.5 0 1 0 5 0 a2.5 2.5 0 1 0 -5 0zM647.5 330 a2.5 2.5 0 1 0 5 0 a2.5 2.5 0 1 0 -5 0z" fill="black"></path><path d="M807.5 290 a2.5 2.5 0 1 0 5 0 a2.5 2.5 0 1 0 -5 0zM787.5 270 a2.5 2.5 0 1 0 5 0 a2.5 2.5 0 1 0 -5 0zM807.5 390 a2.5 2.5 0 1 0 5 0 a2.5 2.5 0 1 0 -5 0zM807.5 450 a2.5 2.5 0 1 0 5 0 a2.5 2.5 0 1 0 -5 0zM787.5 510 a2.5 2.5 0 1 0 5 0 a2.5 2.5 0 1 0 -5 0z" fill="black"></path><path d="M647.5 430 a2.5 2.5 0 1 0 5 0 a2.5 2.5 0 1 0 -5 0z" fill="black"></path><path d="M627.5 410 a2.5 2.5 0 1 0 5 0 a2.5 2.5 0 1 0 -5 0z" fill="black"></path><path d="M807.5 570 a2.5 2.5 0 1 0 5 0 a2.5 2.5 0 1 0 -5 0z" fill="black"></path><path d="M627.5 550 a2.5 2.5 0 1 0 5 0 a2.5 2.5 0 1 0 -5 0z" fill="black"></path><path d="M607.5 290 a2.5 2.5 0 1 0 5 0 a2.5 2.5 0 1 0 -5 0zM647.5 250 a2.5 2.5 0 1 0 5 0 a2.5 2.5 0 1 0 -5 0zM587.5 310 a2.5 2.5 0 1 0 5 0 a2.5 2.5 0 1 0 -5 0zM587.5 430 a2.5 2.5 0 1 0 5 0 a2.5 2.5 0 1 0 -5 0zM627.5 330 a2.5 2.5 0 1 0 5 0 a2.5 2.5 0 1 0 -5 0z" fill="black"></path><path d="M867.5 310 a2.5 2.5 0 1 0 5 0 a2.5 2.5 0 1 0 -5 0zM807.5 370 a2.5 2.5 0 1 0 5 0 a2.5 2.5 0 1 0 -5 0zM827.5 450 a2.5 2.5 0 1 0 5 0 a2.5 2.5 0 1 0 -5 0zM867.5 390 a2.5 2.5 0 1 0 5 0 a2.5 2.5 0 1 0 -5 0z" fill="black"></path><path d="M587.5 510 a2.5 2.5 0 1 0 5 0 a2.5 2.5 0 1 0 -5 0z" fill="black"></path><path d="M867.5 570 a2.5 2.5 0 1 0 5 0 a2.5 2.5 0 1 0 -5 0z" fill="black"></path><path d="M567.5 490 a2.5 2.5 0 1 0 5 0 a2.5 2.5 0 1 0 -5 0z" fill="black"></path><path d="M887.5 510 a2.5 2.5 0 1 0 5 0 a2.5 2.5 0 1 0 -5 0zM887.5 450 a2.5 2.5 0 1 0 5 0 a2.5 2.5 0 1 0 -5 0zM907.5 510 a2.5 2.5 0 1 0 5 0 a2.5 2.5 0 1 0 -5 0z" fill="black"></path><path d="M527.5 250 a2.5 2.5 0 1 0 5 0 a2.5 2.5 0 1 0 -5 0zM507.5 250 a2.5 2.5 0 1 0 5 0 a2.5 2.5 0 1 0 -5 0zM567.5 390 a2.5 2.5 0 1 0 5 0 a2.5 2.5 0 1 0 -5 0zM547.5 250 a2.5 2.5 0 1 0 5 0 a2.5 2.5 0 1 0 -5 0zM567.5 250 a2.5 2.5 0 1 0 5 0 a2.5 2.5 0 1 0 -5 0z" fill="black"></path><path d="M907.5 570 a2.5 2.5 0 1 0 5 0 a2.5 2.5 0 1 0 -5 0z" fill="black"></path><path d="M527.5 450 a2.5 2.5 0 1 0 5 0 a2.5 2.5 0 1 0 -5 0zM507.5 410 a2.5 2.5 0 1 0 5 0 a2.5 2.5 0 1 0 -5 0zM487.5 430 a2.5 2.5 0 1 0 5 0 a2.5 2.5 0 1 0 -5 0z" fill="black"></path><path d="M907.5 430 a2.5 2.5 0 1 0 5 0 a2.5 2.5 0 1 0 -5 0zM927.5 390 a2.5 2.5 0 1 0 5 0 a2.5 2.5 0 1 0 -5 0zM927.5 470 a2.5 2.5 0 1 0 5 0 a2.5 2.5 0 1 0 -5 0z" fill="black"></path><path d="M507.5 510 a2.5 2.5 0 1 0 5 0 a2.5 2.5 0 1 0 -5 0zM487.5 470 a2.5 2.5 0 1 0 5 0 a2.5 2.5 0 1 0 -5 0zM487.5 530 a2.5 2.5 0 1 0 5 0 a2.5 2.5 0 1 0 -5 0zM487.5 550 a2.5 2.5 0 1 0 5 0 a2.5 2.5 0 1 0 -5 0z" fill="black"></path><path d="M947.5 410 a2.5 2.5 0 1 0 5 0 a2.5 2.5 0 1 0 -5 0zM967.5 390 a2.5 2.5 0 1 0 5 0 a2.5 2.5 0 1 0 -5 0z" fill="black"></path><path d="M967.5 450 a2.5 2.5 0 1 0 5 0 a2.5 2.5 0 1 0 -5 0z" fill="black"></path><path d="M447.5 270 a2.5 2.5 0 1 0 5 0 a2.5 2.5 0 1 0 -5 0zM447.5 310 a2.5 2.5 0 1 0 5 0 a2.5 2.5 0 1 0 -5 0zM507.5 310 a2.5 2.5 0 1 0 5 0 a2.5 2.5 0 1 0 -5 0zM467.5 270 a2.5 2.5 0 1 0 5 0 a2.5 2.5 0 1 0 -5 0zM427.5 330 a2.5 2.5 0 1 0 5 0 a2.5 2.5 0 1 0 -5 0z" fill="black"></path><path d="M987.5 290 a2.5 2.5 0 1 0 5 0 a2.5 2.5 0 1 0 -5 0zM1007.5 290 a2.5 2.5 0 1 0 5 0 a2.5 2.5 0 1 0 -5 0zM967.5 330 a2.5 2.5 0 1 0 5 0 a2.5 2.5 0 1 0 -5 0zM1007.5 370 a2.5 2.5 0 1 0 5 0 a2.5 2.5 0 1 0 -5 0zM1007.5 430 a2.5 2.5 0 1 0 5 0 a2.5 2.5 0 1 0 -5 0z" fill="black"></path><path d="M447.5 530 a2.5 2.5 0 1 0 5 0 a2.5 2.5 0 1 0 -5 0z" fill="black"></path><path d="M1007.5 530 a2.5 2.5 0 1 0 5 0 a2.5 2.5 0 1 0 -5 0z" fill="black"></path><path d="M387.5 250 a2.5 2.5 0 1 0 5 0 a2.5 2.5 0 1 0 -5 0zM407.5 290 a2.5 2.5 0 1 0 5 0 a2.5 2.5 0 1 0 -5 0zM407.5 430 a2.5 2.5 0 1 0 5 0 a2.5 2.5 0 1 0 -5 0zM347.5 270 a2.5 2.5 0 1 0 5 0 a2.5 2.5 0 1 0 -5 0zM447.5 430 a2.5 2.5 0 1 0 5 0 a2.5 2.5 0 1 0 -5 0z" fill="black"></path><path d="M1027.5 270 a2.5 2.5 0 1 0 5 0 a2.5 2.5 0 1 0 -5 0z" fill="black"></path><path d="M407.5 530 a2.5 2.5 0 1 0 5 0 a2.5 2.5 0 1 0 -5 0z" fill="black"></path><path d="M1047.5 270 a2.5 2.5 0 1 0 5 0 a2.5 2.5 0 1 0 -5 0zM1067.5 250 a2.5 2.5 0 1 0 5 0 a2.5 2.5 0 1 0 -5 0zM1087.5 310 a2.5 2.5 0 1 0 5 0 a2.5 2.5 0 1 0 -5 0z" fill="black"></path><path d="M367.5 490 a2.5 2.5 0 1 0 5 0 a2.5 2.5 0 1 0 -5 0zM387.5 470 a2.5 2.5 0 1 0 5 0 a2.5 2.5 0 1 0 -5 0zM347.5 470 a2.5 2.5 0 1 0 5 0 a2.5 2.5 0 1 0 -5 0zM327.5 470 a2.5 2.5 0 1 0 5 0 a2.5 2.5 0 1 0 -5 0z" fill="black"></path><path d="M1067.5 390 a2.5 2.5 0 1 0 5 0 a2.5 2.5 0 1 0 -5 0zM1087.5 430 a2.5 2.5 0 1 0 5 0 a2.5 2.5 0 1 0 -5 0zM1087.5 490 a2.5 2.5 0 1 0 5 0 a2.5 2.5 0 1 0 -5 0zM1087.5 330 a2.5 2.5 0 1 0 5 0 a2.5 2.5 0 1 0 -5 0z" fill="black"></path><path d="M367.5 550 a2.5 2.5 0 1 0 5 0 a2.5 2.5 0 1 0 -5 0zM347.5 530 a2.5 2.5 0 1 0 5 0 a2.5 2.5 0 1 0 -5 0z" fill="black"></path></mask></defs></svg>